<?xml version="1.0" standalone="no"?>
<!DOCTYPE svg PUBLIC "-//W3C//DTD SVG 20010904//EN"
 "http://www.w3.org/TR/2001/REC-SVG-20010904/DTD/svg10.dtd">
<svg version="1.0" xmlns="http://www.w3.org/2000/svg"
 width="152.000000pt" height="152.000000pt" viewBox="0 0 152.000000 152.000000"
 preserveAspectRatio="xMidYMid meet">
<metadata>
Created by potrace 1.14, written by Peter Selinger 2001-2017
</metadata>
<g transform="translate(0.000000,152.000000) scale(0.100000,-0.100000)"
fill="#000000" stroke="none">
<path d="M885 1501 c-2 -2 -23 -5 -47 -6 -70 -4 -168 -34 -250 -75 -96 -49
-164 -106 -237 -199 -93 -119 -125 -218 -125 -391 0 -69 3 -141 7 -160 13 -64
25 -112 31 -117 8 -8 -3 -26 -131 -222 -63 -96 -119 -184 -123 -196 -5 -14 -4
-31 4 -46 9 -19 19 -24 51 -24 45 0 37 -10 194 235 112 174 108 170 148 170
19 0 66 8 106 17 40 9 75 16 80 15 4 -1 7 3 7 9 0 5 4 8 9 4 5 -3 12 -1 16 5
3 5 13 10 20 10 29 0 159 86 217 144 125 125 207 326 201 496 -2 30 -14 135
-18 150 -1 3 -7 25 -14 50 -7 25 -21 64 -32 86 -17 39 -22 42 -64 46 -26 2
-48 2 -50 -1z"/>
<path d="M1126 630 c-80 -25 -127 -59 -173 -125 -25 -36 -53 -126 -53 -171 0
-32 0 -32 -107 -68 -302 -101 -308 -103 -323 -129 -11 -20 -12 -30 -2 -51 20
-44 52 -43 201 8 75 26 167 57 204 68 l68 21 17 -24 c19 -29 92 -98 101 -97 3
1 24 -7 45 -16 39 -18 126 -24 177 -13 78 16 161 81 204 159 27 48 30 62 30
143 -1 99 -10 126 -73 204 -43 53 -137 100 -209 105 -28 2 -74 -4 -107 -14z"/>
</g>
</svg>
